<svg width="24" height="25" viewBox="0 0 24 25" fill="none" xmlns="http://www.w3.org/2000/svg">
<path d="M22.6798 1.3205C21.7999 0.440403 20.7399 0.000273644 19.5003 0.000273644V0H4.50002C3.26052 0 2.20048 0.440239 1.32022 1.32033C0.440129 2.20059 0 3.26063 0 4.50013V19.5007C0 20.7401 0.440129 21.8003 1.32022 22.6802C2.20048 23.5604 3.26058 24.0006 4.50008 24.0006H7.35966C7.18239 22.3968 7.21884 21.0736 7.46895 20.0321L9.00015 13.5632C8.75015 13.0527 8.62504 12.4226 8.62504 11.6727C8.62504 10.8082 8.84642 10.0815 9.28928 9.49304C9.73182 8.90432 10.271 8.61005 10.9064 8.61005C11.4168 8.61005 11.81 8.77927 12.086 9.11771C12.3619 9.45643 12.5001 9.8809 12.5001 10.3914C12.5001 10.7141 12.4428 11.1023 12.3283 11.5553C12.2135 12.0087 12.0601 12.5398 11.8674 13.1493C11.6747 13.7587 11.5367 14.2403 11.4533 14.5944C11.3076 15.2196 11.4273 15.7584 11.8127 16.2119C12.1981 16.6647 12.7033 16.8917 13.3285 16.8917C14.4328 16.8917 15.3363 16.2771 16.0397 15.0477C16.7428 13.8187 17.0942 12.329 17.0942 10.5791C17.0942 9.23549 16.6593 8.14151 15.7891 7.29787C14.9197 6.45406 13.7087 6.0321 12.1564 6.0321C10.4171 6.0321 9.00809 6.58694 7.92982 7.69624C6.85161 8.80564 6.31247 10.1417 6.31247 11.7042C6.31247 12.6208 6.57304 13.4022 7.09384 14.0481C7.27083 14.2459 7.32824 14.4649 7.26569 14.7046C7.21353 14.8817 7.13543 15.1994 7.03128 15.6575C6.98952 15.8036 6.91411 15.9023 6.80465 15.9546C6.69508 16.0066 6.57276 16.0066 6.43737 15.9546C5.63531 15.6214 5.02826 15.0481 4.61692 14.2356C4.20552 13.4233 3.9998 12.4856 3.9998 11.4233C3.9998 10.7357 4.11183 10.0453 4.33583 9.35282C4.55984 8.65996 4.90622 7.99331 5.37492 7.35276C5.84361 6.71194 6.40338 6.14167 7.05454 5.64155C7.70549 5.14177 8.50256 4.74329 9.44521 4.44639C10.3877 4.14954 11.401 4.00106 12.484 4.00106C13.5884 4.00106 14.6144 4.19151 15.5625 4.57166C16.5103 4.95175 17.3046 5.4569 17.9456 6.0871C18.5861 6.71736 19.0888 7.44131 19.4531 8.25912C19.8179 9.07666 20.0001 9.92321 20.0001 10.7981C20.0001 13.1525 19.4038 15.0978 18.2112 16.6342C17.0185 18.1707 15.4793 18.9392 13.5941 18.9392C12.9685 18.9392 12.383 18.7933 11.836 18.5017C11.2892 18.2101 10.9064 17.8611 10.6875 17.4547C10.2292 19.2778 9.95325 20.3661 9.85945 20.7203C9.6199 21.6371 9.0574 22.7307 8.17199 24.0016H19.5001C20.7396 24.0016 21.7997 23.5615 22.6796 22.6813C23.5599 21.801 24 20.7409 24 19.5014V4.50024C24 3.26085 23.5599 2.20075 22.6798 1.3205Z" fill="black"/>
</svg>
