<svg width="24" height="24" viewBox="0 0 24 24" fill="none" xmlns="http://www.w3.org/2000/svg">
<path d="M19.5 0H4.49998C2.01448 0 0 2.01448 0 4.49998V19.5C0 21.9855 2.01448 24 4.49998 24H19.5C21.9855 24 24 21.9855 24 19.5V4.49998C24 2.01448 21.9855 0 19.5 0ZM17.97 9.30599L17.979 9.6885C17.979 13.5945 15.0075 18.0945 9.57299 18.0945C7.905 18.0945 6.35247 17.6055 5.04449 16.767C5.27551 16.794 5.51097 16.809 5.7495 16.809C7.13401 16.809 8.40751 16.3365 9.4185 15.5445C8.12551 15.5205 7.03498 14.6655 6.65849 13.4925C6.83998 13.5255 7.02299 13.5435 7.21499 13.5435C7.48499 13.5435 7.74597 13.509 7.99347 13.4415C6.64197 13.1685 5.62348 11.976 5.62348 10.545V10.5075C6.02246 10.7295 6.47696 10.8615 6.96146 10.8781C6.16946 10.3486 5.64746 9.44406 5.64746 8.41955C5.64746 7.87806 5.79297 7.37106 6.04644 6.93457C7.50295 8.72256 9.68095 9.89856 12.1365 10.0216C12.0854 9.80554 12.06 9.57906 12.06 9.34808C12.06 7.71759 13.383 6.39456 15.015 6.39456C15.864 6.39456 16.632 6.75304 17.172 7.32754C17.844 7.19402 18.477 6.94804 19.0485 6.61053C18.828 7.30055 18.36 7.87954 17.7495 8.24551C18.345 8.175 18.9165 8.01449 19.446 7.78051C19.05 8.37149 18.5475 8.89201 17.97 9.30599Z" fill="#010002"/>
</svg>
