<svg width="24" height="20" viewBox="0 0 24 20" fill="none" xmlns="http://www.w3.org/2000/svg">
<path d="M24 1C24 0.4 23.6 0 23 0H1C0.4 0 0 0.4 0 1V3C0 3.6 0.4 4 1 4H23C23.6 4 24 3.6 24 3V1Z" fill="black"/>
<path d="M24 9.00002C24 8.40002 23.6 8.00002 23 8.00002H1C0.4 8.00002 0 8.40002 0 9.00002V11C0 11.6 0.4 12 1 12H23C23.6 12 24 11.6 24 11V9.00002Z" fill="black"/>
<path d="M24 17C24 16.4 23.6 16 23 16H1C0.4 16 0 16.4 0 17V19C0 19.6 0.4 20 1 20H23C23.6 20 24 19.6 24 19V17Z" fill="black"/>
</svg>
